/* XPM */
static char *b82a04505d2a402eb5f663facfdd40fdCcd2AarZGKIDR53x[] = {
/* columns rows colors chars-per-pixel */
"50 50 2 1 ",
"  c #0C0A0A",
". c #797474",
/* pixels */
"                                                  ",
" ................................................ ",
" ................................................ ",
" ................................................ ",
" ................................................ ",
" ................................................ ",
" ................................................ ",
" ................................................ ",
" ................................................ ",
" ................................................ ",
" ................................................ ",
" ................................................ ",
" ................................................ ",
" ................................................ ",
" ................................................ ",
" ................................................ ",
" ................................................ ",
" ................................................ ",
" ................................................ ",
" ................................................ ",
" ................................................ ",
" ................................................ ",
" ................................................ ",
" ................................................ ",
" ................................................ ",
" ................................................ ",
" ................................................ ",
" ................................................ ",
" ................................................ ",
" ................................................ ",
" ................................................ ",
" ................................................ ",
" ................................................ ",
" ................................................ ",
" ................................................ ",
" ................................................ ",
" ................................................ ",
" ................................................ ",
" ................................................ ",
" ................................................ ",
" ................................................ ",
" ................................................ ",
" ................................................ ",
" ................................................ ",
" ................................................ ",
" ................................................ ",
" ................................................ ",
" ................................................ ",
" ................................................ ",
"                                                  "
};
