/* XPM */
static char *f9478d0084074dbd983de02344377997Xsffd19Txd7mmyli[] = {
/* columns rows colors chars-per-pixel */
"50 50 2 1 ",
"  c #0C0A0A",
". c #4C4C4C",
/* pixels */
"                                                  ",
" ........ .................... .................. ",
" ........ .................... .................. ",
" ........ .................... .................. ",
" ........ .................... .................. ",
" ........ .................... .................. ",
" ........ .................... .................. ",
"                                                  ",
" ................ .................. ............ ",
" ................ .................. ............ ",
" ................ .................. ............ ",
" ................ .................. ............ ",
" ................ .................. ............ ",
"                                                  ",
" .... .......................... ................ ",
" .... .......................... ................ ",
" .... .......................... ................ ",
" .... .......................... ................ ",
" .... .......................... ................ ",
" .... .......................... ................ ",
"                                                  ",
" ........................... .................... ",
" ........................... .................... ",
" ........................... .................... ",
" ........................... .................... ",
"                                                  ",
" ....... ............ ........................... ",
" ....... ............ ........................... ",
" ....... ............ ........................... ",
" ....... ............ ........................... ",
"                                                  ",
" .......................... ..................... ",
" .......................... ..................... ",
" .......................... ..................... ",
" .......................... ..................... ",
"                                                  ",
" ........ ................ ...................... ",
" ........ ................ ...................... ",
" ........ ................ ...................... ",
" ........ ................ ...................... ",
"                                                  ",
" .......................... ..................... ",
" .......................... ..................... ",
" .......................... ..................... ",
" .......................... ..................... ",
"                                                  ",
" ........ ...................... ................ ",
" ........ ...................... ................ ",
" ........ ...................... ................ ",
"                                                  "
};
