/* XPM */
static char *f2f95d2158804e37c60180a3d5b22e685K4Epuq3B6xtszTj[] = {
/* columns rows colors chars-per-pixel */
"50 50 8 1 ",
"  c black",
". c #0C0A0A",
"X c #572A04",
"o c #797474",
"O c #DC3E3E",
"+ c #47C825",
"@ c #AC956E",
"# c #1A6999",
/* pixels */
"..................................................",
".oooooooooooooooooooooooooooooooooooooooooooooooo.",
".ooooooooooooooooOooooooooooooooooooooooooooooooo.",
".oooooooooooOOooOOooooooooooooooooooooooooooooooo.",
".oooooooooooooOOooooo##oooooooooooooooooooooooooo.",
".ooooooooooooOOOOOoo#####oooooooooooooooooooooooo.",
".oooooooooooOOoOoOo#######ooooooooooooooooooooooo.",
".ooooooooooooooOo###########ooooooooooooooooooooo.",
".ooooooooooooooO#############oooooooooooooooooooo.",
".ooooooooooooooO#########################oooooooo.",
".oooooooooooooo##########################oooooooo.",
".oooooooooooooo   @@@@@@@@@    oooooooooooooooooo.",
".oooooooooooo    @@@@@@@@@@@    ooooooooooooooooo.",
".oooooooooooo   @@@ @@@@@@@@    ooooooooooooooooo.",
".ooooooooooo    @@@@@@@ @@@@ o oooooooooooooooooo.",
".ooooooooooo    @@@ @@@@@@@@ oooooooooooooooooooo.",
".oooooooooooo   @@@  @@@@@@@ oooooooooooooooooooo.",
".oooooooooooooo @@@@      @@ oooooooooooooooooooo.",
".ooooooooooooooo @@@@@@@@@@ ooooooooooooooooooooo.",
".oooooooooooooooo @@@@@@@@ oooooooooooooooooooooo.",
".ooooooooooooooooo @@@@@@ ooooo  oooooooooooooooo.",
".ooooooo oooooooooo      ooooo  ooooooooooooooooo.",
".ooooooo  oooooooooo +++  ooo  oooooooooooooooooo.",
".oooooooo  oooooooo +++++  o  ooooooooooooooooooo.",
".ooooooooo  ooooooo ++++++ o oooooooooooooooooooo.",
".ooooooooooo    oo  +++++++ ooooooooooooooooooooo.",
".oooooooooooooo    ++++++++ ooooooooooooooooooooo.",
".oooooooooooooooo  ++++++++ ooooooooooooooooooooo.",
".oooooooooooooooo +++++++++ ooooooooooooooooooooo.",
".oooooooooooooooo  ++++++++ ooooooooooooooooooooo.",
".ooooooooooooooooo          ooooooooooooooooooooo.",
".ooooooooooooooooooo ooo oooooooooooooooooooooooo.",
".oooooooooooooooooo  oooo ooooooooooooooooooooooo.",
".oooooooooooooooooo ooooo ooooooooooooooooooooooo.",
".ooooooooooooooooo oooooo ooooooooooooooooooooooo.",
".ooooooooooooooooo ooooo oooooooooooooooooooooooo.",
".oooooooooooooooo  ooooo oooooooooooooooooooooooo.",
".oooooooooooooooo oooooo oooooooooooooooooooooooo.",
".ooooooooooooooXXXoooooo oooooooooooooooooooooooo.",
".ooooooooooooXXXXXooooooXXXoooooooooooooooooooooo.",
".ooooooooooooXXXXXooooooXXXXXXooooooooooooooooooo.",
".oooooooooooooooooooooooXXXXXXooooooooooooooooooo.",
".oooooooooooooooooooooooooooooooooooooooooooooooo.",
".oooooooooooooooooooooooooooooooooooooooooooooooo.",
".oooooooooooooooooooooooooooooooooooooooooooooooo.",
".oooooooooooooooooooooooooooooooooooooooooooooooo.",
".oooooooooooooooooooooooooooooooooooooooooooooooo.",
".oooooooooooooooooooooooooooooooooooooooooooooooo.",
".oooooooooooooooooooooooooooooooooooooooooooooooo.",
".................................................."
};
