/* XPM */
static char *result[] = {
/* columns rows colors chars-per-pixel */
"80 80 4 1 ",
"  c black",
". c gray12",
"X c gray40",
"o c #FFE700",
/* pixels */
"                                                                                ",
" XXXXXXXXXXXXXXXXXXXXXXXXXXXXXXXXXXXXXXXXXXXXXXXXXXXXXXXXXXXXXXXXXXXXXXXXXXXXXX ",
" XXXXXXXXXXXXXXXXXXXXXXXXXXXXXXXXXXXXXXXXXXXXXXXXXXXXXXXXXXXXXXXXXXXXXXXXXXXXXX ",
" XXXXXXXXXXXXXXXXXXXXXXXXXXXXXXXXXXXXXXXXXXXXXXXXXXXXXXXXXXXXXXXXXXXXXXXXXXXXXX ",
" XXXXXXXXXXXXXXXXXXXXXXXXXXXXXXXXXXXXXXXXXXXXXXXXXXXXXXXXXXXXXXXXXXXXXXXXXXXXXX ",
" XXXXXXXXXXXXXXXXXXXXXXXXXXXXXXXXXXXXXXXXXXXXXXXXXXXXXXXXXXXXXXXXXXXXXXXXXXXXXX ",
" XXXXXXXXXXXXXXXXXXXXXXXXXXXXXXXXXXXXXXXXXXXXXXXXXXXXXXXXXXXXXXXXXXXXXXXXXXXXXX ",
" XXXXXXXXXXXXXXXXXXXXXXXXXXXXXXXXXXXXXXXXXXXXXXXXXXXXXXXXXXXXXXXXXXXXXXXXXXXXXX ",
" XXXXXXXXXXXoXXXXXXXXXXXXXXXXXXXXXXXXXXXXXXXXXXXXXXXXXXXXXXXXXXXXXXXXXXXXXXXXXX ",
" XXXXXXXXXXXoXXXXXXXXXXXXXXXXXXXXXXXXXXXXXXXXXXXXXXXXXXXXXXXXXXXXoXXXXXXXXXXXXX ",
" XXXXXXXXXXXXoXXXXXXXXXXXXXXXXXXXXXXXXXXXXXXXXXXXXXXXXXXXXXXXXXXXoXXXXXXXXXXXXX ",
" XXXXXXXXXXXXoXXXXXXXXXXXXXXXXXXXXXXXXXXXXXXXXXXXXXXXXXXXXXXXXXXoXXXXXXXXXXXXXX ",
" XXXXXXXXXXXXXoXXXXXXXXXXXXXXXXXXXXXXXXXXXXXXXXXXXXXXXXXXXXXXXXXoXXXXXXXXXXXXXX ",
" XXXXXXXXXXXXXoXXXXXXXXXXXXXXXXXXXXXXXXXXXXXXXXXXXXXXXXXXXXXXXXoXXXXXXXXXXXXXXX ",
" XXXXXXXXXXXXXXoXXXXXXXXXXXXXXXXXXXXXXXXXXXXXXXXXXXXXXXXXXXXXXXoXXXXXXXXXXXXXXX ",
" XXXXXXXXXXXXXXoXXXXXXXXXXXXXXXXXXXXXXXXXXXXXXXXXXXXXXXXXXXXXXoXXXXXXXXXXXXXXXX ",
" XXXXXXXXXXXXXXXoXXXXXXXXXXXXXXXXXXXXXXXXXXXXXXXXXXXXXXXXXXXXXoXXXXXXXXXXXXXXXX ",
" XXXXXXXXXXXXXXXoXXXXXXXXXXXXXXXXXXXXXXXXXXXXXXXXXXXXXXXXXXXXoXXXXXXXXXXXXXXXXX ",
" XXXXXXXXXXXXXXXXoXXXXXXXXXXXXXXXXXXXXXXXXXXXXXXXXXXXXXXXXXXXoXXXXXXXXXXXXXXXXX ",
" XXXXXXXXXXXXXXXXoXXXXXXXXXXXXXXXXXX         XXXXXXXXXXXXXXXoXXXXXXXXXXXXXXXXXX ",
" XXXXXXXXXXXXXXXXXoXXXXXXXXXXXXXX   ooooooooo   XXXXXXXXXXXXXXXXXXXXXXXXXXXXXXX ",
" XXXXXXXXXXXXXXXXXoXXXXXXXXXXXX  ooooooooooooooo  XXXXXXXXXXXXXXXXXXXXXXXXXXXXX ",
" XXXXXXXXXXXXXXXXXXoXXXXXXXXX  ooooooooooooooooooo  XXXXXXXXXXXXXXXXXXXXXXXXXXX ",
" XXXXXXXXXXXXXXXXXXoXXXXXXXX ooooooooooooooooooooooo XXXXXXXXXXXXXXXXXXXXXXXXXX ",
" XXXXXXXXXXXXXXXXXXXoXXXXX  oooooooo.oooo.ooooooooooo  XXXXXXXXXXXXXXXXXXXXXXXX ",
" XXXXXXXXXXXXXXXXXXXoXXXX oooooooooo.oooo.ooooooooooooo XXXXXXXXXXXXXXXXXXXXXXX ",
" XXXXXXXXXXXXXXXXXXXXXXX ooooooooooo.oooo.oooooooooooooo XXXXXXXXXXXXXXXXXXXXXX ",
" XXXXXXXXXXXXXXXXXXXXXXX ooooooooooo.oooo.oooooooooooooo XXXXXXXXXXXXXXXXXXXXXX ",
" XXXXXXXXXXXXXXXXXXXXXX oooooooooooo.ooo....ooooooooooooo XXXXXXXXXXXXXXXXXXXXX ",
" XXXXXXXXXXXXXXXXXXXXX ooooooooooooo....o.oo.ooooooooooooo XXXXXXXXXXXXXXXXXXXX ",
" XXXXXXXXXXXXXXXXXXXXX ooooooooooooo..ooo.oooooooooooooooo XXXXXXXXXXXXXXXXXXXX ",
" XXXXXXXXXXXXXXXXXXXX ooooooooooooo..oooo.ooooooooooooooooo XXXXXXXXXXXXXXXXXXX ",
" XXXXXXXXXXXXXXXXXXXX oooooooooooo.o.oooo.ooooooooooooooooo XXXXXXXXXXXXXXXXXXX ",
" XXXXXXXXXXXXXXXXXXX ooooooooooooo.o.oooo.oooooooooooooooooo XXXXXXXXXXXXXXXXXX ",
" XXXXXXXXXXXXXXXXXXX ooooooooooooo.o.oooo.oooooooooooooooooo XXXXXXXXXXXXXXXXXX ",
" XXXXXXXXXXXXXXXXXXX oooooooooooo.oo.oooo.oooooooooooooooooo XXXXXXXXXXXXXXXXXX ",
" XXXXXXXXXXXXXXXXXX ooooooooooooo.oo.oooo.ooooooooooooooooooo XXXXXXXXXXXXXXXXX ",
" XXXXXXXXXXXXXXXXXX oooooooooooooo...oooo.ooooooooooooooooooo XXXXXXXXXXXXXXXXX ",
" XXXXXXXXXXXXXXXXXX ooooooooooooooo..oooo.ooooooooooooooooooo XXXXXXXXXXXXXXXXX ",
" XXXXXXXXXXXXXXXXXX oooooooooooooooo.......oooooooooooooooooo XXXXXXXXXXXXXXXXX ",
" XXXXXXXXXXXXXXXXXX oooooooooooooooo.oooo.o.ooooooooooooooooo XXXXXXXXXXXXXXXXX ",
" XXXXXXXXXXXXXXXXXX oooooooooooooooo.oooo.oo.oooooooooooooooo XXXXXXXXXXXXXXXXX ",
" XXXXXXXXXXXXXXXXXX oooooooooooooooo.oooo.ooo.ooooooooooooooo XXXXXXXXXXXXXXXXX ",
" XXXXXXXXXXXXXXXXXX oooooooooooooooo.oooo.oooo.oooooooooooooo XXXXXXXXXXXXXXXXX ",
" XXXXXXXXXXXXXXXXXX oooooooooooooooo.oooo.ooooo.ooooooooooooo XXXXXXXXXXXXXXXXX ",
" XXXXXXXXXXXXXXXXXXX ooooooooooo.ooo.oooo.oooooo.ooooooooooo XXXXXXXXXXXXXXXXXX ",
" XXXXXXXXXXXXXXXXXXX ooooooooooo.ooo.oooo.oooooo.ooooooooooo XXXXXXXXXXXXXXXXXX ",
" XXXXXXXXXXXXXXXXXXX ooooooooooo.ooo.oooo.oooooo.ooooooooooo XXXXXXXXXXXXXXXXXX ",
" XXXXXXXXXXXXXXXXXXXX ooooooooooo.oo.oooo.oooooo.oooooooooo XXXXXXXXXXXXXXXXXXX ",
" XXXXXXXXXXXXXXXXXXXX ooooooooooo..o.oooo.ooooo..oooooooooo XXXXXXXXXXXXXXXXXXX ",
" XXXXXXXXXXXXXXXXXXXXX ooooooooooo...oooo.ooo..ooooooooooo XXXXXXXXXXXXXXXXXXXX ",
" XXXXXXXXXXXXXXXXXXXXX ooooooooooooo.........ooooooooooooo XXXXXXXXXXXXXXXXXXXX ",
" XXXXXXXXXXXXXXXXXXXXXX oooooooooooo.oooo.ooooooooooooooo XXXXXXXXXXXXXXXXXXXXX ",
" XXXXXXXXXXXXXXXXXXXXXXX ooooooooooo.oooo.oooooooooooooo XXXXXXXXXXXXXXXXXXXXXX ",
" XXXXXXXXXXXXXXXXXXXXXXX ooooooooooo.oooo.oooooooooooooo XXXXXXXXXXXXXXXXXXXXXX ",
" XXXXXXXXXXXXXXXXXXXXXXXX oooooooooo.oooo.ooooooooooooo XXXXXXXoXXXXXXXXXXXXXXX ",
" XXXXXXXXXXXXXXXXXoXXXXXXX  ooooooooooooo.ooooooooooo  XXXXXXXXoXXXXXXXXXXXXXXX ",
" XXXXXXXXXXXXXXXXXoXXXXXXXXX oooooooooooo.oooooooooo XXXXXXXXXXXoXXXXXXXXXXXXXX ",
" XXXXXXXXXXXXXXXXoXXXXXXXXXXX  ooooooooooooooooooo  XXXXXXXXXXXXoXXXXXXXXXXXXXX ",
" XXXXXXXXXXXXXXXXoXXXXXXXXXXXXX  ooooooooooooooo  XXXXXXXXXXXXXXXoXXXXXXXXXXXXX ",
" XXXXXXXXXXXXXXXoXXXXXXXXXXXXXXXX   ooooooooo   XXXXXXXXXXXXXXXXXoXXXXXXXXXXXXX ",
" XXXXXXXXXXXXXXXoXXXXXXXXXXXXXXXXXXX         XXXXXXXXXXXXXXXXXXXXXoXXXXXXXXXXXX ",
" XXXXXXXXXXXXXXoXXXXXXXXXXXXXXXXXXXXXXXXXXXXXXXXXXXXXXXXXXXXXXXXXXoXXXXXXXXXXXX ",
" XXXXXXXXXXXXXXoXXXXXXXXXXXXXXXXXXXXXXXXXXXXXXXXXXXXXXXXXXXXXXXXXXXoXXXXXXXXXXX ",
" XXXXXXXXXXXXXoXXXXXXXXXXXXXXXXXXXXXXXXXXXXXXXXXXXXXXXXXXXXXXXXXXXXoXXXXXXXXXXX ",
" XXXXXXXXXXXXXoXXXXXXXXXXXXXXXXXXXXXXXXXXXXXXXXXXXXXXXXXXXXXXXXXXXXXoXXXXXXXXXX ",
" XXXXXXXXXXXXoXXXXXXXXXXXXXXXXXXXXXXXXXXXXXXXXXXXXXXXXXXXXXXXXXXXXXXoXXXXXXXXXX ",
" XXXXXXXXXXXXoXXXXXXXXXXXXXXXXXXXXXXXXXXXXXXXXXXXXXXXXXXXXXXXXXXXXXXXoXXXXXXXXX ",
" XXXXXXXXXXXoXXXXXXXXXXXXXXXXXXXXXXXXXXXXXXXXXXXXXXXXXXXXXXXXXXXXXXXXoXXXXXXXXX ",
" XXXXXXXXXXXoXXXXXXXXXXXXXXXXXXXXXXXXXXXXXXXXXXXXXXXXXXXXXXXXXXXXXXXXXoXXXXXXXX ",
" XXXXXXXXXXoXXXXXXXXXXXXXXXXXXXXXXXXXXXXXXXXXXXXXXXXXXXXXXXXXXXXXXXXXXoXXXXXXXX ",
" XXXXXXXXXXoXXXXXXXXXXXXXXXXXXXXXXXXXXXXXXXXXXXXXXXXXXXXXXXXXXXXXXXXXXXXXXXXXXX ",
" XXXXXXXXXXXXXXXXXXXXXXXXXXXXXXXXXXXXXXXXXXXXXXXXXXXXXXXXXXXXXXXXXXXXXXXXXXXXXX ",
" XXXXXXXXXXXXXXXXXXXXXXXXXXXXXXXXXXXXXXXXXXXXXXXXXXXXXXXXXXXXXXXXXXXXXXXXXXXXXX ",
" XXXXXXXXXXXXXXXXXXXXXXXXXXXXXXXXXXXXXXXXXXXXXXXXXXXXXXXXXXXXXXXXXXXXXXXXXXXXXX ",
" XXXXXXXXXXXXXXXXXXXXXXXXXXXXXXXXXXXXXXXXXXXXXXXXXXXXXXXXXXXXXXXXXXXXXXXXXXXXXX ",
" XXXXXXXXXXXXXXXXXXXXXXXXXXXXXXXXXXXXXXXXXXXXXXXXXXXXXXXXXXXXXXXXXXXXXXXXXXXXXX ",
" XXXXXXXXXXXXXXXXXXXXXXXXXXXXXXXXXXXXXXXXXXXXXXXXXXXXXXXXXXXXXXXXXXXXXXXXXXXXXX ",
" XXXXXXXXXXXXXXXXXXXXXXXXXXXXXXXXXXXXXXXXXXXXXXXXXXXXXXXXXXXXXXXXXXXXXXXXXXXXXX ",
"                                                                                "
};
