/* XPM */
static char *b43c95dd65af40a9ddae68f11f15414bkpn2TTlpsDCIvPio[] = {
/* columns rows colors chars-per-pixel */
"50 50 5 1 ",
"  c black",
". c #0C0A0A",
"X c #797474",
"o c #DFFF00",
"O c #F6FF00",
/* pixels */
"..................................................",
".XXXXXXXXXXXXXXXXXXXXXXXXXXXXXXXXXXXXXXXXXXXXXXXX.",
".XXXXXXXXXXXXXXXXXXXXXXXXXXXXXXXXXXXXXXXXXXooXXXX.",
".XXXooXXXXXXXXXXXXXXXXXXXXXXXXXXXXXXXXXXXXooXXXXX.",
".XXXXXoXXXXXXXXXXXXXXXXXXXXXXXXXXXXXXXXXXoXXXXXXX.",
".XXXXXoXXXXXXXXXXXXXXXXXXXXXXXXXXXXXXXXXoXXXXXXXX.",
".XXXXXXoXXXXXXXXXXXXXXXXXXXXXXXXXXXXXXXoXXXXXXXXX.",
".XXXXXXoXXXXXXXXXXXXXXXXXXXXXXXXXXXXXXoXXXXXXXXXX.",
".XXXXXXoXXXXXXXXXXXXXXXXXXXXXXXXXXXXXXoXXXXXXXXXX.",
".XXXXXXXoXXXXXXXXXXXXXOOOOOOOXXXXXXXXoXXXXXXXXXXX.",
".XXXXXXXooXXXXXXXXXOOOOO OOOOOOOXXXXoXXXXXXXXXXXX.",
".XXXXXXXXoXXXXXXXXOOOOOO O OOOOOOXXXXXXXXXXXXXXXX.",
".XXXXXXXXoXXXXXXXOOOOOOO O OOOOOOOXXXXXXXXXXXXXXX.",
".XXXXXXXXXXXXXXXOOOOOOO     OOOOOOOXXXXXXXXXXoXXX.",
".XXXXXXXXXXXXXXOOOOOOO   O  OOOOOOOOXXXXXXXXXoXXX.",
".XXXXoXXXXXXXXOOOOOOOO O O OOOOOOOOOOXXXXXXXoXXXX.",
".XXXXoXXXXXXXOOOOOOOO  O O OOOOOOOOOOOXXXXXXoXXXX.",
".XXXXoXXXXXXXOOOOOOOO OO O OOOOOOOOOOOXXXXXXoXXXX.",
".XXXXXoXXXXXXOOOOOOOO OO O OOOOOOOOOOOXXXXXoXXXXX.",
".XXXXXXoXXXXOOOOOOOOOO O O OOOOOOOOOOOOXXXoXXXXXX.",
".XXXXXXoXXXXOOOOOOOOOO   O OOOOOOOOOOOOXXXoXXXXXX.",
".XXXXXXXoXXXOOOOOOOOOOOO   OOOOOOOOOOOOXXXXXXXXXX.",
".XXXXXXXXoXXOOOOOOOO  OO O  OOOOOOOOOOOXXXXXXXXXX.",
".XXXXXXXXXoXOOOOOOOO OOO O O  OOOOOOOOOXXXXXXXXXX.",
".XXXXXXXXXXXOOOOOOOO  O OO OO OOOOOOOOOXXXXXXXXXX.",
".XXXXXXXXXXXOOOOOOOOO   OO OO  OOOOOOOOXXXXXXXXXX.",
".XXXXXXXXXXXOOOOOOOOOO        OOOOOOOOOXXXXXXXXXX.",
".XXXXXXXXXXXXOOOOOOOOOO OO OOOOOOOOOOOXXXXXXXXXXX.",
".XXXXXXXXXXXXOOOOOOOOOO OO OOOOOOOOOOOXXXXXXXXXXX.",
".XXXXXXXXXXXXOOOOOOOOOO O OOOOOOOOOOOOXXXXXXXXXXX.",
".XXXXXXXXXXXXXOOOOOOOOO O OOOOOOOOOOOXXXXXXXXXXXX.",
".XXXXXXXXXXXXXXOOOOOOOO O OOOOOOOOOOXXXXXXXXXXXXX.",
".XXXXXXXXXXXXXXXOOOOOOO OOOOOOOOOOOXXXXXXXXXXXXXX.",
".XXXXXXXXXXXXXXXXOOOOOOOOOOOOOOOOOXXXXXXXXXXXXXXX.",
".XXXXXXXXXXXXXXXXXOOOOOOOOOOOOOOOXXXXXXXXXXXXXXXX.",
".XXXXXXXXXXXXXXXXXXOOOOOOOOOOOOOXXXXXXXXXXoXXXXXX.",
".XXXXXXXXXXXXXXXXXXXXXOOOOOOOXXXXXXXXXXXXXoXXXXXX.",
".XXXXXXXXXXXXXXXXXXXXXXXXXXXXXXXXXXXXXXXXXoXXXXXX.",
".XXXXXXXXXXXXXXXXXXXXXXXXXXXXXXXXXXXXXXXXXXoXXXXX.",
".XXXXXXXXXXXoXXXXXXXXXXXXXXXXXXXXXXXXXXXXXXoXXXXX.",
".XXXXXXXXXXXoXXXXXXXXXXXXXXXXXXXXXXXXXXXXXXXoXXXX.",
".XXXXXXXXXXoXXXXXXXXXXXXXXXXXXXXXXXXXXXXXXXXoXXXX.",
".XXXXXXXXXXoXXXXXXXXXXXXXXXXXXXXXXXXXXXXXXXXXoXXX.",
".XXXXXXXXXoXXXXXXXXXXXXXXXXXXXXXXXXXXXXXXXXXXoXXX.",
".XXXXXXXooXXXXXXXXXXXXXXXXXXXXXXXXXXXXXXXXXXXXoXX.",
".XXXXXXoXXXXXXXXXXXXXXXXXXXXXXXXXXXXXXXXXXXXXXoXX.",
".XXXXooXXXXXXXXXXXXXXXXXXXXXXXXXXXXXXXXXXXXXXXoXX.",
".XXXoXXXXXXXXXXXXXXXXXXXXXXXXXXXXXXXXXXXXXXXXXXoX.",
".XXXXXXXXXXXXXXXXXXXXXXXXXXXXXXXXXXXXXXXXXXXXXXoX.",
".................................................."
};
