/* XPM */
static char *_9a9b966965044b3bd5ad58ee070a7a6aRdULmDTBAEA375u[] = {
/* columns rows colors chars-per-pixel */
"50 50 2 1 ",
"  c #0C0A0A",
". c #4E2E00",
/* pixels */
"                                                  ",
" ................................................ ",
" ................................................ ",
" ................................................ ",
" ................................................ ",
" ................................................ ",
" ................................................ ",
" ................................................ ",
" ................................................ ",
" ................................................ ",
" ................................................ ",
" ................................................ ",
" ................................................ ",
" ................................................ ",
" ................................................ ",
" ................................................ ",
" ................................................ ",
" ................................................ ",
" .....................................    ....... ",
" ....................................      ...... ",
" ...................................        ..... ",
" ..................................          .... ",
" ..................................          .... ",
" ..................................          .... ",
" ..................................          .... ",
" ..................................          .... ",
" ...................................        ..... ",
" ....................................      ...... ",
" .....................................    ....... ",
" ................................................ ",
" ................................................ ",
" ................................................ ",
" ................................................ ",
" ................................................ ",
" ................................................ ",
" ................................................ ",
" ................................................ ",
" ................................................ ",
" ................................................ ",
" ................................................ ",
" ................................................ ",
" ................................................ ",
" ................................................ ",
" ................................................ ",
" ................................................ ",
" ................................................ ",
" ................................................ ",
" ................................................ ",
" ................................................ ",
"                                                  "
};
