/* XPM */
static char *result[] = {
/* columns rows colors chars-per-pixel */
"80 80 7 1 ",
"  c black",
". c gray12",
"X c #3B2101",
"o c green",
"O c #3BE5FA",
"+ c #F3E3AD",
"@ c #C5F9FF",
/* pixels */
"          @@@@@@@@@@@@@@@@@@@@@@@@@@@@@@@@@@@@@@@@@@@@@@@@@@@@@@@@@@@@@@@@@@@@@@",
" XXXXXXXX @@@@@@@@@@@@@@@@@@@@@@@@@@@@@@@@@@@@@@@@@@@@@@@@@@@@@@@@@@@@@@@@@@@@@@",
" XXXXXXXX @@@@@@@@@@@@@@@@@@@@@@@@@@@@@@@@@@@@@@@@@@@@@@@@@@@@@@@@@@@@@@@@@@@@@@",
" XXXXXXXX @@@@@@@@@@@@@@@@@@@@@@@@@@@@@@@@@@@@@@@@@@@@@@@@@@@@@@@@@@@@@@@@@@@@@@",
" XXXXXXXX @@@@@@@@@@@@@@@@@@@@@@@@@@@@@@@@@@@@@@@@@@@@@@@@@@@@@@@@@@@@@@@@@@@@@@",
" XXXXXXXX @@@@@@@@@@@@@@@@@@@@@@@@@@@@@@@@@@@@@@@@@@@@@@@@@@@@@@@@@@@@@@@@@@@@@@",
" XXXXXXXX @@@@@@@@@@@@@@@@@@@@@@@@@@@@@@@@@@@@@@@@@@@@@@@@@@@@@@@@@@@@@@@@@@@@@@",
" XXXXXXXX @@@@@@@@@@@@@@@@@@@@@@@@@@@@@@@@@@@@@@@@@@@@@@@@@@@@@@@@@@@@o@@@@@o@@@",
" XXXXXXXX @@@@@@@@@@@@@@@@@@@@@@@@@@@@@@@@@@@@@@@@@@@@@@@@@@@@@@@oo@@@o@@@@@o@@@",
" XXXXXXXX @@@@@@@@@@@@@@@@@@@@@@@@@@@@@@@@@@@@@@@@@@@@@@@@@@@@@@@oo@@ooo@@ooo@@@",
" XXXXXXXX @@@@@@@@@@@@@@@@@@@@@@@@   @@@@@@@@@@@@@@@@@@@@@@@@@@@@@oo@oooo@ooo@@@",
" XXXXXXXX @@@@@@@@@@@@@@@@@@@@@@@         @@@@@@@@@@@@@@@@@@@@@@@@oo@oooo@oo@@@@",
" XXXXXXXX @@@@@@@@@@@@@@@@@@@@@@             @@@@@@@@@@@@@@@@@@@@oooooo@ooooo@@@",
" XXXXXXXX @@@@@@@@@@@@@@@@@@@@@                 @@@@@@@@@@@@@@@@@oo@ooooooooo@@@",
" XXXXXXXX @@@@@@@@@@@@@@@@@@ @                     @@@@@@@@@@@@@@oo@ooooooooo@@@",
" XXXXXXXX @@@@@@@@@@@@@@@                           @@@@@@@@@@@@ooooooooo@oooo@@",
" XXXXXXXX @@@@@@@@@@@@@                           @@@@@@@@@@@@@@oooooo@ooooooo@@",
" XXXXXXXX @@@@@@@@@@@@@                            @@@@@@@@@@@@@oooooo@ooooooo@@",
" XXXXXXXX @@@@@@@@@@@@@                             @@@@@@@@@@@@oooooo@ooooooo@@",
" XXXXXXXX @@@@@@@@@@@@@                              @@@@@@@@@@@oo@ooo@oooo@oo@@",
" XXXXXXXX @@@@@@@@@@@@@                           @@@@@@@@@@@@@@oo@ooooooooooo@@",
" XXXXXXXX @@@@@@@@@@@@@      +++++++++++++++++++++ @@@@@@@@@@@@@oo@o@oooooooooo@",
" XXXXXXXX @@@@@@@@@@@@@     ++++++++++++++++++++++ @@@@@@@@@@@@@oo@o@o@oo@ooooo@",
" XXXXXXXX @@@@@@@@@@@@@    +++++++.+++++++.++++++++ @@@@@@@@@@@@ooo@ooooo@ooooo@",
" XXXXXXXX @@@@@@@@@@@@@   +++++++++++++++++++++++++ @@@@@@@@@@@@ooo@o@ooooooooo@",
" XXXXXXXX @@@@@@@@@@@@@@ ++++++++++++++++++++++++++ @@@@@@@@@@@@@oo@oooooooooo@@",
" XXXXXXXX @@@@@@@@@@@@@@ ++++++++++++++++++++++++++ @@@@@@@@@@@@@o@ooooooooooo@@",
" XXXXXXXX @@@@@@@@@@@@@@ ++++++++++++++++++++++++++ @@@@@@@@@@@@@o@oo@ooooooooo@",
" XXXXXXXX @@@@@@@@@@@@@@ ++++++++++++++++++++++++++ @@@@@@@@@@ @@oooX@oooooooo@o",
" XXXXXXXX @@@@@@@@@@@@@@ +++++++.++++++++++++++++++ @@@@@@@@@@ @@oooX@oooooooooo",
" XXXXXXXX @@@@@ @@@@@@@@@ +++++++.+++++++++.++++++ @@@@@@@@@@ @@oo@oX@ooooooo@oo",
" XXXXXXXX @@@@@@ @@@@@@@@ ++++++++...++++..+++++++ @@@@@@@@@ @@@ooo@o@oooooooooo",
" XXXXXXXX @@@@@@ @@@@@@@@@ +++++++++......+++++++ @@@@@@@@@@ @@@ooo@o@ooooooo@oo",
" XXXXXXXX @@@@@@@ @@@@@@@@ ++++++++++++++++++++++ @@@@@@@@@ @@@oooo@oooXXXo@o@@@",
" XXXXXXXX @@@@@@@@ @@@@@@@@ ++++++++++++++++++++ @@@@@@@@@@ @@@o@o@@oooXXXXoo@@@",
" XXXXXXXX @@@@@@@@ @@@@@@@@@  ++++++++++++++++  @@@@@@@@@@ @@@@o@o@@@oXXXXXoo@@@",
" XXXXXXXX @@@@@@@@@ @@@@@@@@@@ ++++++++++++++ @@@@@@@@@@@ @@@@@@@@@@@oXXXXX@o@@@",
" XXXXXXXX @@@@@@@@@@ @@@@@@@@@@   ++++++++   @@@@@@@@@@  @@@@@@@@@@@@oXXXXX@o@@@",
" XXXXXXXX @@@@@@@@@@@ @@@@@@@@@@ O........OOO @@@@@@@  @@@@@@@@@@@@@@XXXXXX@@@@@",
" XXXXXXXX @@@@@@@@@@@@ @@@@@@@@@ OOOOOOOOOOOO @@@@@@ @@@@@@@@@@@@@@@@XXXXXX@@@@@",
" XXXXXXXX @@@@@@@@@@@@ @@@@@@@@ OOOOOOOOOOOOOO @@@@ @@@@@@@@@@@@@@@@@XXXXXX@@@@@",
" XXXXXXXX @@@@@@@@@@@@@ @@@@@@@ OOOOOOOOOOOOOO @@  @@@@@@@@@@@@@@@@@@XXXXXX@@@@@",
" XXXXXXXX @@@@@@@@@@@@@@  @@@@@ OOOOOOOOOOOOOOO  @@@@@@@@@@@@@@@@@@@@XXXXXX@@@@@",
" XXXXXXXX @@@@@@@@@@@@@@@@  @@@ OOOOOOOOOOOOOOO @@@@@@@@@@@@@@@@@@@@@XXXXXX@@@@@",
" XXXXXXXX @@@@@@@@@@@@@@@@@@   OOOOOOOOOOOOOOOO @@@@@@@@@@@@@@@@@@@@@XXXXXX@@@@@",
" XXXXXXXX @@@@@@@@@@@@@@@@@@@@ OOOOOOOOOOOOOOOO @@@@@@@@@@@@@@@@@@@@@XXXXXX@@@@@",
" XXXXXXXX @@@@@@@@@@@@@@@@@@@ OOOOOOOOOOOOOOOOO @@@@@@@@@@@@@@@@@@@@XXXXXXX@@@@@",
" XXXXXXXX @@@@@@@@@@@@@@@@@@@ OOOOOOOOOOOOOOOOOO.@@@@@@@@@@@@@@@@@@@XXXXXXX@@@@@",
" XXXXXXXX @@@@@@@@@@@@@@@@@@@ OOOOOOOOOOOOOOOOOO.@@@@@@@@@@@@@@@@@@@XXXXXXX@@@@@",
" XXXXXXXX @@@@@@@@@@@@@@@@@@ OOOOOOOOOOOOOOOOOOOO.@@@@@@@@@@@@@@@@@@XXXXXXX@@@@@",
" XXXXXXXX @@@@@@@@@@@@@@@@@@ OOOOOOOOOOOOOOOOOOOO.@@@@@@@@@@@@@@@@@XXXXXXXX@@@@@",
" XXXXXXXX @@@@@@@@@@@@@@@@@@    OOOOOOOOOOOOOOOOOO @@@@@@@@@@@@@@@@XXXXXXXX@@@@@",
" XXXXXXXX @@@@@@@@@@@@@@@@@@@@@@           OOOOOOO @@@@@@@@@@@@@@@@XXXXXXXX@@@@@",
" XXXXXXXX @@@@@@@@@@@@@@@@@@@@@@@ @@@@@@@          @@@@@@@@@@@@@@@@XXXXXXXX@@@@@",
" XXXXXXXX @@@@@@@@@@@@@@@@@@@@@@@ @@@@@@@@ @@@@@@@@@@@@@@@@@@@@@@@XXXXXXXXX@@@@@",
" XXXXXXXX @@@@@@@@@@@@@@@@@@@@@@@ @@@@@@@@ @@@@@@@@@@@@@@@@@@@@@@@XXXXXXXXX@@@@@",
" XXXXXXXX @@@@@@@@@@@@@@@@@@@@@@@ @@@@@@@@@ @@@@@@@@@@@@@@@@@@@@@@XXXXXXXXX@@@@@",
" XXXXXXXX @@@@@@@@@@@@@@@@@@@@@@ @@@@@@@@@@ @@@@@@@@@@@@@@@@@@@@@@XXXXXXXXX@@@@@",
" XXXXXXXX @@@@@@@@@@@@@@@@@@@@@@ @@@@@@@@@@ @@@@@@@@@@@@@@@@@@@@@@XXXXXXXXX@@@@@",
" XXXXXXXX @@@@@@@@@@@@@@@@@@@@@@ @@@@@@@@@@@ @@@@@@@@@@@@@@@@@@@@@XXXXXXXXX@@@@@",
" XXXXXXXX @@@@@@@@@@@@@@@@@@@@@@ @@@@@@@@@@@ @@@@@@@@@@@@@@@@@@@@@XXXXXXXXX@@@@@",
" XXXXXXXX @@@@@@@@@@@@@@@@@@@@@@ @@@@@@@@@@@ @@@@@@@@@@@@@@@@@@@@XXXXXXXXXX@@@@@",
" XXXXXXXX @@@@@@@@@@@@@@@@@@@@@@ @@@@@@@@@@@ @@@@@@@@@@@@@@@@@@@@XXXXXXXXXX@@@@@",
" XXXXXXXX @@@@@@@@@@@@@@@@@@@@@ @@@@@@@@@@@@ @@@@@@@@@@@@@@@@@@@@XXXXXXXXXXX@@@@",
" XXXXXXXX @@@@@@@@@@@@@@@@@@@@@ @@@@@@@@@@@@ @@@@@@@@@@@@@@@@@@@@XXXXXXXXXXX@@@@",
" XXXXXXXX @@@@@@@@@@@@@@@@@@@@@ @@@@@@@@@@@@ @@@@@@@@@@@@@@@@@@@@XXXXXXXXXXX@@@@",
" XXXXXXXX @@@@@@@@@@@@@@@@@@@@ @@@@@@@@@@@@@ @@@@@@@@@@@@@@@@@@@@XXXXXXXXXXX@@@@",
" XXXXXXXX @@@@@@@@@@@@@@@@@@@ @@@@@@@@@@@@@@@ @@@@@@@@@@@@@@@@@@@XXXXXXXXXXX@@@@",
" XXXXXXXX @@@@@@@@@@@@@@@@@@@ @@@@@@@@@@@@@@@ @@@@@@@@@@@@@@@@@@@XXXXXXXXXXX@@@@",
" XXXXXXXX @@@@@@@@@@@@@@@@@@@ @@@@@@@@@@@@@@@  @@@@@@@@@@@@@@@@@@@XXXXXXXXXX@@@@",
" XXXXXXXX @@@@@@@@@@@@@@@@    @@@@@@@@@@@@@@@@   @@@@@@@@@@@@@@@@@XXXXXXXXXX@@@@",
" XXXXXXXX @@@@@@@@@@@@@@@@@@@@@@@@@@@@@@@@@@@@@@@@@@@@@@@@@@@@@@@@XXXXXXXXXX@@@@",
" XXXXXXXX @@@@@@@@@@@@@@@@@@@@@@@@@@@@@@@@@@@@@@@@@@@@@@@@@@@@@@@@XXXXXXXXXX@@@@",
" XXXXXXXX @@@@@@@@@@@@@@@@@@@@@@@@@@@@@@@@@@@@@@@@@@@@@@@@@@@@@@@@@XXXXXXXXXX@@@",
" XXXXXXXX @@@@@@@@@@@@@@@@@@@@@@@@@@@@@@@@@@@@@@@@@@@@@@@@@@@@@@@@@XXXXXXXXXXX@@",
" XXXXXXXX @@@@@@@@@@@@@@@@@@@@@@@@@@@@@@@@@@@@@@@@@@@@@@@@@@@@@@@@@XXXXXXXXXXXX@",
" XXXXXXXX @@@@@@@@@@@@@@@@@@@@@@@@@@@@@@@@@@@@@@@@@@@@@@@@@@@@@@XXXXXXXXXXXXXXX@",
" XXXXXXXX @@@@@@@@@@@@@@@@@@@@@@@@@@@@@@@@@@@@@@@@@@@@@@@@@@@@@@XXXXXXXXXXXXXXX@",
" XXXXXXXX @@@@@@@@@@@@@@@@@@@@@@@@@@@@@@@@@@@@@@@@@@@@@@@@@@@@@@@@@@@@@@@@@@@@@@",
"          @@@@@@@@@@@@@@@@@@@@@@@@@@@@@@@@@@@@@@@@@@@@@@@@@@@@@@@@@@@@@@@@@@@@@@"
};
